# xmcd
# 
# Track frame offsets:
#     150
#     17296
#     30258
#     45585
#     58733
#     74262
#     92152
#     105243
#     120196
#     134563
#     151553
#     166705
#     181508
#     195044
#     214327
#     228943
#     240951
#     256471
#     270787
#     285805
#     297439
#     312581
# 
# Disc length: 4413
# 
# Revision: 1
# Processed by: cddbd v1.5.2PL0 Copyright (c) Steve Scherf et al.
# Submitted via: fre:ac v1.0.31
# 
DISCID=07113b16
DTITLE=Ray Stevens - We The People
DYEAR=2010
DGENRE=Country
TTITLE0=We the People
TTITLE1=Caribou Barbie
TTITLE2=Stand Up
TTITLE3=Three Fractured Factions
TTITLE4=Dear Andy Griffith
TTITLE5=The Global Warming Song
TTITLE6=Let's Roll
TTITLE7=Solar Powered Song
TTITLE8=Fly Over Country
TTITLE9=We Are the Government
TTITLE10=The Fallen Ones
TTITLE11=Come to the U.S.A.
TTITLE12=If 10% Is Good Enough for Jesus
TTITLE13=Kings and Queens
TTITLE14=Obama Nation
TTITLE15=Throw the Bums Out
TTITLE16=Sucking Sound
TTITLE17=Safe at Home
TTITLE18=Thank You
TTITLE19=Pledge of Allegiance - The Star Spangled Banner
TTITLE20=Mr. Businessman
TTITLE21=Midnight in Baghdad
EXTD=YEAR: 2010
EXTT0=
EXTT1=
EXTT2=
EXTT3=
EXTT4=
EXTT5=
EXTT6=
EXTT7=
EXTT8=
EXTT9=
EXTT10=
EXTT11=
EXTT12=
EXTT13=
EXTT14=
EXTT15=
EXTT16=
EXTT17=
EXTT18=
EXTT19=
EXTT20=
EXTT21=
PLAYORDER=
